HIERARCHY
ROOT joint_Root
{
	OFFSET 0.0 0.0 0.0
	CHANNELS 6 Xposition Yposition Zposition Zrotation Xrotation Yrotation 
	JOINT Hips
	{
		OFFSET 4.5925 91.4895 -427.239
		CHANNELS 6 Xposition Yposition Zposition Zrotation Xrotation Yrotation 
		JOINT Spine
		{
			OFFSET 15.7357 0.0 0.0
			CHANNELS 6 Xposition Yposition Zposition Zrotation Xrotation Yrotation 
			JOINT Chest
			{
				OFFSET 8.98455 -0.406207 0.0
				CHANNELS 6 Xposition Yposition Zposition Zrotation Xrotation Yrotation 
				JOINT Neck
				{
					OFFSET 16.3773 0.0 0.0
					CHANNELS 6 Xposition Yposition Zposition Zrotation Xrotation Yrotation 
					JOINT Head
					{
						OFFSET 6.45672 0.0 0.0
						CHANNELS 6 Xposition Yposition Zposition Zrotation Xrotation Yrotation 
						End Site
						{
							OFFSET 0.0 0.0 0.0
						}
					}
				}
				JOINT Shoulder_L
				{
					OFFSET 12.9942 -0.242716 4.98039
					CHANNELS 6 Xposition Yposition Zposition Zrotation Xrotation Yrotation 
					JOINT UpperArm_L
					{
						OFFSET 5.34809 0.0 0.0
						CHANNELS 6 Xposition Yposition Zposition Zrotation Xrotation Yrotation 
						JOINT LowerArm_L
						{
							OFFSET 24.3286 1.87007e-05 0.0
							CHANNELS 6 Xposition Yposition Zposition Zrotation Xrotation Yrotation 
							JOINT Hand_L
							{
								OFFSET 22.2916 0.0 0.0
								CHANNELS 6 Xposition Yposition Zposition Zrotation Xrotation Yrotation 
								End Site
								{
									OFFSET 0.0 0.0 0.0
								}
							}
						}
					}
				}
				JOINT Shoulder_R
				{
					OFFSET 12.9945 -0.242716 -4.98039
					CHANNELS 6 Xposition Yposition Zposition Zrotation Xrotation Yrotation 
					JOINT UpperArm_R
					{
						OFFSET -5.34813 0.0 0.0
						CHANNELS 6 Xposition Yposition Zposition Zrotation Xrotation Yrotation 
						JOINT LowerArm_R
						{
							OFFSET -24.3289 0.000322201 0.0
							CHANNELS 6 Xposition Yposition Zposition Zrotation Xrotation Yrotation 
							JOINT Hand_R
							{
								OFFSET -22.2915 -0.000108084 0.0
								CHANNELS 6 Xposition Yposition Zposition Zrotation Xrotation Yrotation 
								End Site
								{
									OFFSET 0.0 0.0 0.0
								}
							}
						}
					}
				}
			}
		}
		JOINT UpperLeg_L
		{
			OFFSET -2.19248 -6.46944 0.0
			CHANNELS 6 Xposition Yposition Zposition Zrotation Xrotation Yrotation 
			JOINT LowerLeg_L
			{
				OFFSET 39.0811 0.0 -1.23785e-05
				CHANNELS 6 Xposition Yposition Zposition Zrotation Xrotation Yrotation 
				JOINT Foot_L
				{
					OFFSET 40.9854 0.0 -1.26872e-05
					CHANNELS 6 Xposition Yposition Zposition Zrotation Xrotation Yrotation 
					JOINT Toes_L
					{
						OFFSET 11.7543 0.0 0.0
						CHANNELS 6 Xposition Yposition Zposition Zrotation Xrotation Yrotation 
						End Site
						{
							OFFSET 0.0 0.0 0.0
						}
					}
				}
			}
		}
		JOINT UpperLeg_R
		{
			OFFSET -2.19251 6.46944 0.0
			CHANNELS 6 Xposition Yposition Zposition Zrotation Xrotation Yrotation 
			JOINT LowerLeg_R
			{
				OFFSET -39.0811 -0.00228153 -0.0401928
				CHANNELS 6 Xposition Yposition Zposition Zrotation Xrotation Yrotation 
				JOINT Foot_R
				{
					OFFSET -40.9854 0.0 0.0
					CHANNELS 6 Xposition Yposition Zposition Zrotation Xrotation Yrotation 
					JOINT Toes_R
					{
						OFFSET -11.7543 0.0 0.0
						CHANNELS 6 Xposition Yposition Zposition Zrotation Xrotation Yrotation 
						End Site
						{
							OFFSET 0.0 0.0 0.0
						}
					}
				}
			}
		}
	}
}
MOTION
Frames:	6
Frame Time:	0.0333333
0.000000 0.000000 0.000000 0.000000 0.000000 -0.000000 -5.842910 90.871500 -2.450390 85.197800 -2.286840 7.294730 15.735700 0.000005 -0.000001 69.453500 83.636400 -74.221800 8.984550 -0.406207 -0.000000 3.999550 -4.304020 -9.378310 16.377300 -0.000001 -0.000001 4.067840 -0.008443 0.138337 6.456720 -0.000001 -0.000000 -3.519580 3.012600 3.633780 12.994200 -0.242716 4.980390 -91.121400 2.966330 -69.280200 5.348090 -0.000007 -0.000001 -63.602800 3.686580 -1.278460 24.328600 0.000019 0.000005 7.860690 16.789500 -25.545900 22.291600 -0.000001 0.000005 11.460600 5.194850 2.847840 12.994500 -0.242716 -4.980390 92.773200 -8.011480 -70.836400 -5.348130 -0.000001 -0.000004 -39.453100 -67.693400 -63.699600 -24.328900 0.000322 -0.000009 -15.730700 -22.508100 -36.349500 -22.291500 -0.000108 -0.000004 22.416900 5.205940 2.588420 -2.192480 -6.469440 -0.000000 -165.889000 -14.848100 -4.179840 39.081100 -0.000007 -0.000012 -0.171412 0.279306 31.538000 40.985400 -0.000006 -0.000013 -2.983880 10.342700 -68.479600 11.754300 -0.000000 0.000003 -0.000181 -0.001702 -16.641900 -2.192510 6.469440 -0.000001 -176.776000 20.972000 178.180000 -39.081100 -0.002282 -0.040193 0.005619 -0.004381 27.827700 -40.985400 0.000008 0.000006 9.012380 10.975900 -70.100500 -11.754300 -0.000006 -0.000006 -0.000976 -0.015061 -17.185700
0.000000 0.000000 0.000000 0.000000 0.000000 -0.000000 -5.841170 90.988300 -2.575530 85.504000 -1.918910 7.120900 15.735700 0.000005 -0.000001 70.341400 83.682100 -74.811900 8.984550 -0.406207 -0.000000 3.997510 -4.098020 -8.790250 16.377300 -0.000001 -0.000001 4.499540 -0.606942 1.148910 6.456720 -0.000001 -0.000000 -3.458890 3.180910 2.556320 12.994200 -0.242716 4.980390 -91.050200 2.830800 -69.636500 5.348090 -0.000007 -0.000001 -63.754700 3.560780 -1.810460 24.328600 0.000019 0.000005 8.109550 16.802700 -26.239400 22.291600 -0.000001 0.000005 12.441900 5.187410 3.032490 12.994500 -0.242716 -4.980390 93.794600 -10.012600 -69.120400 -5.348130 -0.000001 -0.000004 -39.992600 -73.117700 -72.842600 -24.328900 0.000322 -0.000009 -15.331600 -15.369200 -45.979200 -22.291500 -0.000108 -0.000004 25.224700 5.370280 -1.978760 -2.192480 -6.469440 -0.000000 -166.258000 -15.124900 -4.189560 39.081100 -0.000007 -0.000012 -0.161630 0.270853 30.826600 40.985400 -0.000006 -0.000013 -2.874050 10.837500 -67.976800 11.754300 -0.000000 0.000003 -0.000155 -0.001497 -16.634400 -2.192510 6.469440 -0.000001 -176.907000 20.852300 178.072000 -39.081100 -0.002282 -0.040193 0.015117 -0.022782 27.400900 -40.985400 0.000008 0.000006 9.022110 10.546500 -69.793000 -11.754300 -0.000006 -0.000006 -0.001064 -0.016315 -17.236600
0.000000 0.000000 0.000000 0.000000 0.000000 -0.000000 -5.899150 91.048900 -2.745770 85.649900 -1.778410 6.885280 15.735700 0.000005 -0.000001 71.678900 83.796500 -75.840000 8.984550 -0.406207 -0.000000 3.896350 -3.754370 -8.186810 16.377300 -0.000001 -0.000001 4.785840 -1.016810 2.037850 6.456720 -0.000001 -0.000000 -3.446730 3.240870 1.502410 12.994200 -0.242716 4.980390 -90.916400 2.470060 -69.638100 5.348090 -0.000007 -0.000001 -64.316900 3.042930 -2.262210 24.328600 0.000019 0.000005 8.377890 16.673700 -27.170700 22.291600 -0.000001 0.000005 13.335500 5.195000 2.844370 12.994500 -0.242716 -4.980390 94.734400 -11.438000 -67.334000 -5.348130 -0.000001 -0.000004 -53.292400 -77.279400 -93.422600 -24.328900 0.000322 -0.000009 -13.862000 -9.542470 -56.109000 -22.291500 -0.000108 -0.000004 28.948800 5.520710 -7.261150 -2.192480 -6.469440 -0.000000 -166.438000 -15.341300 -4.406310 39.081100 -0.000007 -0.000012 -0.160787 0.273427 30.457700 40.985400 -0.000006 -0.000013 -2.864690 11.091500 -67.629000 11.754300 -0.000000 0.000003 -0.000144 -0.001402 -16.630900 -2.192510 6.469440 -0.000001 -176.808000 20.625300 177.755000 -39.081100 -0.002282 -0.040193 0.015752 -0.024220 27.194500 -40.985400 0.000008 0.000006 8.973540 10.208900 -69.532800 -11.754300 -0.000006 -0.000006 -0.001222 -0.018508 -17.325800
0.000000 0.000000 0.000000 0.000000 0.000000 -0.000000 -6.074570 91.091200 -2.935780 85.615500 -1.689920 6.631500 15.735700 0.000005 -0.000001 71.982500 83.919600 -76.031200 8.984550 -0.406207 -0.000000 3.689810 -3.612760 -7.973560 16.377300 -0.000001 -0.000001 5.120360 -1.265220 3.235420 6.456720 -0.000001 -0.000000 -3.295580 3.541450 0.959493 12.994200 -0.242716 4.980390 -90.669700 1.791690 -69.502100 5.348090 -0.000007 -0.000001 -65.317000 1.424300 -2.256890 24.328600 0.000019 0.000005 8.650620 16.104400 -28.743600 22.291600 -0.000001 0.000005 14.368000 5.202110 2.666600 12.994500 -0.242716 -4.980390 95.588500 -12.348600 -65.414100 -5.348130 -0.000001 -0.000004 -66.496800 -76.275200 -109.924000 -24.328900 0.000322 -0.000009 -12.731300 -6.460100 -63.525900 -22.291500 -0.000108 -0.000004 38.262200 5.651000 -14.922000 -2.192480 -6.469440 -0.000000 -166.442000 -15.095900 -4.738030 39.081100 -0.000007 -0.000012 -0.162155 0.278370 30.221700 40.985400 -0.000006 -0.000013 -3.046290 10.925800 -67.333700 11.754300 -0.000000 0.000003 -0.000151 -0.001460 -16.633000 -2.192510 6.469440 -0.000001 -176.467000 20.534100 177.351000 -39.081100 -0.002282 -0.040193 0.016831 -0.026438 27.090400 -40.985400 0.000008 0.000006 9.070780 10.021200 -69.201600 -11.754300 -0.000006 -0.000006 -0.001265 -0.019101 -17.349900
0.000000 0.000000 0.000000 0.000000 0.000000 -0.000000 -6.308560 91.078700 -3.083300 85.289200 -1.279160 6.575890 15.735700 0.000005 -0.000001 71.348400 83.947400 -75.473400 8.984550 -0.406207 -0.000000 3.589370 -3.716460 -8.126110 16.377300 -0.000001 -0.000001 5.302730 -1.572400 4.209040 6.456720 -0.000001 -0.000000 -3.205330 3.711240 1.485270 12.994200 -0.242716 4.980390 -90.497900 1.348050 -69.728400 5.348090 -0.000007 -0.000001 -66.163000 -0.146154 -1.663390 24.328600 0.000019 0.000005 8.355750 14.348400 -30.655400 22.291600 -0.000001 0.000005 16.151500 5.212430 2.407710 12.994500 -0.242716 -4.980390 95.380700 -11.562800 -64.831100 -5.348130 -0.000001 -0.000004 -57.290100 -74.490100 -99.717900 -24.328900 0.000322 -0.000009 -13.563400 -6.824590 -63.776600 -22.291500 -0.000108 -0.000004 42.829900 5.665120 -16.645600 -2.192480 -6.469440 -0.000000 -166.111000 -14.442800 -5.145490 39.081100 -0.000007 -0.000012 -0.163989 0.279409 30.409500 40.985400 -0.000006 -0.000013 -3.262300 10.685600 -67.251400 11.754300 -0.000000 0.000003 -0.000140 -0.001371 -16.629800 -2.192510 6.469440 -0.000001 -176.048000 21.371400 177.296000 -39.081100 -0.002282 -0.040193 0.016466 -0.025916 26.917900 -40.985400 0.000008 0.000006 9.162510 10.400700 -69.079500 -11.754300 -0.000006 -0.000006 -0.001253 -0.018945 -17.343500
0.000000 0.000000 0.000000 0.000000 0.000000 -0.000000 -6.470050 91.002500 -3.221830 84.585700 -1.170380 6.645560 15.735700 0.000005 -0.000001 70.371800 83.832700 -74.537000 8.984550 -0.406207 -0.000000 3.727880 -3.991380 -8.193290 16.377300 -0.000001 -0.000001 4.940770 -1.106660 3.456610 6.456720 -0.000001 -0.000000 -3.500620 3.385530 1.885340 12.994200 -0.242716 4.980390 -90.651700 1.731650 -69.374400 5.348090 -0.000007 -0.000001 -65.871700 0.744927 -1.867600 24.328600 0.000019 0.000005 6.424470 10.837500 -30.915600 22.291600 -0.000001 0.000005 18.169300 5.251980 1.380900 12.994500 -0.242716 -4.980390 94.418700 -10.335500 -66.699200 -5.348130 -0.000001 -0.000004 -36.396400 -72.220800 -73.499800 -24.328900 0.000322 -0.000009 -14.548200 -9.635070 -57.183800 -22.291500 -0.000108 -0.000004 35.645700 5.625490 -12.814200 -2.192480 -6.469440 -0.000000 -165.377000 -13.791100 -5.627490 39.081100 -0.000007 -0.000012 -0.171273 0.283250 31.160300 40.985400 -0.000006 -0.000013 -3.432070 10.336900 -67.504300 11.754300 -0.000000 0.000003 -0.000144 -0.001401 -16.630900 -2.192510 6.469440 -0.000001 -175.432000 22.423300 177.370000 -39.081100 -0.002282 -0.040193 0.016321 -0.025691 26.863600 -40.985400 0.000008 0.000006 9.264270 11.223200 -69.068600 -11.754300 -0.000006 -0.000006 -0.001368 -0.020507 -17.407000
